<svg width="1054" height="1362" viewBox="0 0 1054 1362" fill="none" xmlns="http://www.w3.org/2000/svg">
<path d="M1023.45 9.35432C1044.99 0.0355787 1055 -8.05381 1052.95 14.8545C1049.95 48.3544 1048.95 53.3546 1043.45 56.8546L242.376 432.665C230.052 438.446 221.515 450.098 219.716 463.591L172.931 814.431C171.051 828.527 176.797 842.561 188.021 851.292L394.448 1011.85C413.448 1026.35 396 1030.35 360.448 1047.35C328.5 1062.63 325 1063.35 317 1057.85L98.0668 887.568C86.8737 878.862 81.1266 864.881 82.961 850.82L140.989 406.038C142.822 391.983 151.957 379.949 165 374.402L1023.45 9.35432Z" fill="#1E1F23"/>
<path d="M29.762 1351.99C8.21916 1361.3 -1.78948 1369.39 0.262024 1346.49C3.26202 1312.99 4.26202 1307.99 9.76202 1304.49L810.834 928.676C823.158 922.894 831.695 911.243 833.495 897.75L880.279 546.909C882.159 532.813 876.414 518.779 865.189 510.048L658.762 349.486C639.762 334.986 657.21 330.986 692.762 313.986C724.71 298.709 728.21 297.986 736.21 303.486L955.143 473.773C966.337 482.478 972.084 496.46 970.249 510.521L912.221 955.303C910.388 969.357 901.254 981.392 888.211 986.938L29.762 1351.99Z" fill="#911F2F"/>
</svg>
